<?xml version="1.0" encoding="iso-8859-1"?>
<!-- Generator: Adobe Illustrator 19.0.0, SVG Export Plug-In . SVG Version: 6.00 Build 0)  -->
<svg xmlns="http://www.w3.org/2000/svg" xmlns:xlink="http://www.w3.org/1999/xlink" version="1.1" id="Capa_1" x="0px" y="0px" viewBox="0 0 512 512" style="enable-background:new 0 0 512 512;" xml:space="preserve" width="32px">
<g>
	<g>
		<path d="M501.333,320h-67.206c6.635-8.829,11.249-19.783,12.973-32H480c5.896,0,10.667-4.771,10.667-10.667    c0-5.896-4.771-10.667-10.667-10.667h-32.9c-4.263-30.206-26.07-53.333-52.434-53.333c-12.697,0-24.215,5.573-33.384,14.496    c-2.883-8.372-10.612-14.496-19.949-14.496h-64c-11.76,0-21.333,9.573-21.333,21.333V320h-64v-64    c0-9.337-6.124-17.066-14.496-19.949c8.923-9.169,14.496-20.688,14.496-33.384c0-26.363-23.128-48.171-53.333-52.434v-32.9    c0-5.896-4.771-10.667-10.667-10.667s-10.667,4.771-10.667,10.667v32.9C87.128,154.496,64,176.303,64,202.667    c0,12.697,5.573,24.215,14.496,33.384C70.124,238.934,64,246.663,64,256v64H10.667C4.771,320,0,324.771,0,330.667    c0,41.167,33.5,74.667,74.667,74.667h362.667c41.167,0,74.667-33.5,74.667-74.667C512,324.771,507.229,320,501.333,320z     M394.667,234.667c17.646,0,32,19.135,32,42.667S412.313,320,394.667,320s-32-19.135-32-42.667S377.021,234.667,394.667,234.667z     M277.333,234.667h64V320h-64V234.667z M128,170.667c23.531,0,42.667,14.354,42.667,32c0,17.646-19.135,32-42.667,32    s-42.667-14.354-42.667-32C85.333,185.021,104.469,170.667,128,170.667z M85.333,256h85.333v64H85.333V256z M437.333,384H74.667    c-25.76,0-47.302-18.354-52.26-42.667h467.188C484.635,365.646,463.094,384,437.333,384z" fill="#a8a8a8"/>
	</g>
</g>
<g>
</g>
<g>
</g>
<g>
</g>
<g>
</g>
<g>
</g>
<g>
</g>
<g>
</g>
<g>
</g>
<g>
</g>
<g>
</g>
<g>
</g>
<g>
</g>
<g>
</g>
<g>
</g>
<g>
</g>
</svg>
