<svg width="60px" height="60px" id="Capa_1" data-name="Capa 1" xmlns="http://www.w3.org/2000/svg" viewBox="0 0 379.68 104.2"><defs><style>.cls-1{fill:#797979;}.cls-2{fill:#a8a8a8;}.cls-3{fill:#595959;}</style></defs><title>booked</title><path class="cls-1" d="M239.73,101.14l-11-42.29A2.42,2.42,0,0,0,226.36,57l-74.74-.82h-0.17a2.42,2.42,0,0,0-1.38.52h0l-0.27.25h0l-0.13.16-27.2,34.19a2.44,2.44,0,1,0,3.83,3L150.45,64l9.8,37.57a2.43,2.43,0,0,0,2.34,1.83l74.75,0.82A2.44,2.44,0,0,0,239.73,101.14ZM164.51,98.5l-9.76-37.39,69.68,0.76,9.76,37.39Z"/><path class="cls-2" d="M221,72.82a2.47,2.47,0,0,0-2.41-2.47l-49.84-.55a2.44,2.44,0,0,0-.54,4.83,2.7,2.7,0,0,0,.48.06l49.84,0.55A2.44,2.44,0,0,0,221,72.82Z"/><path class="cls-2" d="M198.8,83.12a2.47,2.47,0,0,0-2.41-2.47l-24.92-.27a2.44,2.44,0,0,0-.54,4.83,2.7,2.7,0,0,0,.48.06l24.92,0.27A2.44,2.44,0,0,0,198.8,83.12Z"/><path class="cls-1" d="M163.05,93.28a2.46,2.46,0,0,0-2.41-2.47l-36.24-.4a2.44,2.44,0,0,0-.54,4.83,2.33,2.33,0,0,0,.48.05l36.24,0.4A2.44,2.44,0,0,0,163.05,93.28Z"/><path class="cls-3" d="M22,34.08l-6.86-9.84a11.74,11.74,0,0,1-1.3,0H6.24v9.79H0V0.48H13.83c8.83,0,14.31,4.51,14.31,12A10.74,10.74,0,0,1,21,23l7.73,11H22ZM13.54,5.76H6.24V19.15h7.3c5.47,0,8.31-2.5,8.31-6.72S19,5.76,13.54,5.76Z"/><path class="cls-3" d="M60.29,28.85v5.23H35.09V0.48H59.62V5.71H41.33v8.74H57.55v5.14H41.33v9.26h19Z"/><path class="cls-3" d="M64.42,30.53l2.16-4.85a18.62,18.62,0,0,0,11.09,3.7c5.23,0,7.44-1.87,7.44-4.37,0-7.25-20-2.5-20-15,0-5.42,4.32-10,13.54-10A21.24,21.24,0,0,1,89.86,3l-2,4.85a18.67,18.67,0,0,0-9.27-2.64c-5.18,0-7.3,2-7.3,4.56,0,7.15,19.92,2.5,19.92,14.83,0,5.38-4.37,10-13.59,10C72.43,34.56,67.2,32.93,64.42,30.53Z"/><path class="cls-3" d="M122.64,28.85v5.23H97.44V0.48H122V5.71H103.68v8.74h16.23v5.14H103.68v9.26h19Z"/><path class="cls-3" d="M151.58,34.08l-6.86-9.84a11.74,11.74,0,0,1-1.3,0h-7.58v9.79H129.6V0.48h13.83c8.83,0,14.31,4.51,14.31,12A10.74,10.74,0,0,1,150.58,23l7.73,11h-6.72ZM143.14,5.76h-7.3V19.15h7.3c5.47,0,8.3-2.5,8.3-6.72S148.61,5.76,143.14,5.76Z"/><path class="cls-3" d="M195.41,0.48l-14.64,33.6h-6.14L159.93,0.48h6.77L177.89,26.4,189.17,0.48h6.24Z"/><path class="cls-3" d="M219.7,26.31H202.9l-3.31,7.78h-6.43l15.12-33.6h6.14l15.17,33.6h-6.53Zm-2.06-4.9L211.3,6.72,205,21.41h12.63Z"/><path class="cls-3" d="M239,5.76H227.85V0.48h28.51V5.76H245.23V34.08H239V5.76Z"/><path class="cls-3" d="M261.07,0.48h6.24v33.6h-6.24V0.48Z"/><path class="cls-3" d="M274,17.28C274,7.34,281.66,0,292.08,0s18.1,7.3,18.1,17.28-7.68,17.28-18.1,17.28S274,27.22,274,17.28Zm29.91,0a11.81,11.81,0,0,0-23.62,0A11.81,11.81,0,1,0,303.89,17.28Z"/><path class="cls-3" d="M346.66,0.48v33.6h-5.14L323,11.33V34.08H316.8V0.48h5.14l18.53,22.75V0.48h6.19Z"/><path class="cls-3" d="M352.84,30.53L355,25.68a18.62,18.62,0,0,0,11.09,3.7c5.23,0,7.44-1.87,7.44-4.37,0-7.25-20-2.5-20-15,0-5.42,4.32-10,13.54-10a21.24,21.24,0,0,1,11.18,3l-2,4.85a18.67,18.67,0,0,0-9.26-2.64c-5.18,0-7.3,2-7.3,4.56,0,7.15,19.92,2.5,19.92,14.83,0,5.38-4.37,10-13.58,10C360.86,34.56,355.63,32.93,352.84,30.53Z"/></svg>