<?xml version="1.0" encoding="iso-8859-1"?>
<!-- Generator: Adobe Illustrator 19.0.0, SVG Export Plug-In . SVG Version: 6.00 Build 0)  -->
<svg xmlns="http://www.w3.org/2000/svg" xmlns:xlink="http://www.w3.org/1999/xlink" version="1.1" id="Capa_1" x="0px" y="0px" viewBox="0 0 512 512" style="enable-background:new 0 0 512 512;" xml:space="preserve" width="32">
<g>
	<g>
		<g>
			<path d="M501.333,341.333h-33.401c0.719-3.517,1.401-7.053,1.401-10.667c0-27.875-21.479-50.823-48.771-53.135     c-9.146-16.031-28.438-24.865-46.458-20.313c-15.25-21.542-47.104-28.854-70.125-15.26c-17.934-10.577-40.996-8.466-57.624,3.228     l-36.897-29.52c-2.208-1.76-5.021-2.521-7.854-2.271c-2.813,0.313-5.375,1.729-7.146,3.938l-39.962,49.97l-8.142-8.168     c-2-2-4.729-3.135-7.563-3.135c-2.833,0-5.542,1.125-7.542,3.125l-82.208,82.208H10.667C4.771,341.333,0,346.104,0,352     c0,41.167,33.5,74.667,74.667,74.667h362.667C478.5,426.667,512,393.167,512,352C512,346.104,507.229,341.333,501.333,341.333z      M249.604,272.417c9.333-16.521,32.625-21.375,47.667-9.198c3.917,3.146,9.5,3.156,13.417-0.01     c15.833-12.813,40.771-6.49,49.021,11.573c1.229,2.656,3.479,4.698,6.229,5.646c2.75,0.948,5.792,0.74,8.396-0.615     c11.833-6.146,25.167-0.021,29.375,11.958c1.5,4.271,7.021,6.917,11.646,6.917c17.667,0.083,32.667,14.125,32.646,31.979     c0,3.674-0.848,7.232-2.064,10.667H181.333c0-11.76,9.563-21.333,21.333-21.333c5.896,0,10.667-4.771,10.667-10.667     c0-16.083,12.146-29.656,28.229-31.563C244.958,277.365,247.938,275.375,249.604,272.417z M204.458,238.99l25.117,20.103     c-18.844,5.88-33.184,21.35-36.721,40.71c-1.549,0.366-3.01,0.941-4.491,1.473l-18.703-18.762L204.458,238.99z M138.771,281.76     l31.678,31.779C163.986,321.02,160,330.693,160,341.333H79.206L138.771,281.76z M437.333,405.333H74.667     c-25.75,0-47.313-18.354-52.271-42.667h467.208C484.646,386.979,463.083,405.333,437.333,405.333z" fill="#a8a8a8"/>
			<path d="M128,181.333c0,5.896,4.771,10.667,10.667,10.667c5.896,0,10.667-4.771,10.667-10.667     c0-13.188-3.583-20.344-6.458-26.104c-2.438-4.885-4.208-8.417-4.208-16.563c0-8.146,1.771-11.677,4.208-16.563     c2.875-5.76,6.458-12.917,6.458-26.104c0-5.896-4.771-10.667-10.667-10.667C132.771,85.333,128,90.104,128,96     c0,8.146-1.771,11.677-4.208,16.563c-2.875,5.76-6.458,12.917-6.458,26.104s3.583,20.344,6.458,26.104     C126.229,169.656,128,173.188,128,181.333z" fill="#a8a8a8"/>
			<path d="M256,181.333c0,5.896,4.771,10.667,10.667,10.667c5.896,0,10.667-4.771,10.667-10.667     c0-13.188-3.583-20.344-6.458-26.104c-2.438-4.885-4.208-8.417-4.208-16.563c0-8.146,1.771-11.677,4.208-16.563     c2.875-5.76,6.458-12.917,6.458-26.104c0-5.896-4.771-10.667-10.667-10.667C260.771,85.333,256,90.104,256,96     c0,8.146-1.771,11.677-4.208,16.563c-2.875,5.76-6.458,12.917-6.458,26.104s3.583,20.344,6.458,26.104     C254.229,169.656,256,173.188,256,181.333z" fill="#a8a8a8"/>
			<path d="M384,181.333c0,5.896,4.771,10.667,10.667,10.667s10.667-4.771,10.667-10.667c0-13.188-3.583-20.344-6.458-26.104     c-2.438-4.885-4.208-8.417-4.208-16.563c0-8.146,1.771-11.677,4.208-16.563c2.875-5.76,6.458-12.917,6.458-26.104     c0-5.896-4.771-10.667-10.667-10.667S384,90.104,384,96c0,8.146-1.771,11.677-4.208,16.563     c-2.875,5.76-6.458,12.917-6.458,26.104s3.583,20.344,6.458,26.104C382.229,169.656,384,173.188,384,181.333z" fill="#a8a8a8"/>
		</g>
	</g>
</g>
<g>
</g>
<g>
</g>
<g>
</g>
<g>
</g>
<g>
</g>
<g>
</g>
<g>
</g>
<g>
</g>
<g>
</g>
<g>
</g>
<g>
</g>
<g>
</g>
<g>
</g>
<g>
</g>
<g>
</g>
</svg>
