<?xml version="1.0" encoding="iso-8859-1"?>
<svg xmlns="http://www.w3.org/2000/svg" xmlns:xlink="http://www.w3.org/1999/xlink" version="1.1" viewBox="0 0 409.225 409.225" enable-background="new 0 0 409.225 409.225" width="32px">
  <path d="m80.424,217.255c-6.644-14.498-10.012-29.843-10.012-45.608 0-3.069 1.41-5.97 3.824-7.865 2.415-1.897 5.566-2.579 8.548-1.85 33.748,8.24 56.862,6.463 72.739-5.598 23.921-18.17 35.78-63.399 38.452-146.654 0.173-5.396 4.597-9.68 9.995-9.68h9.417c4.208,0 7.966,2.634 9.4,6.59 13.433,37.027 41.201,63.449 65.701,86.762 27.003,25.694 50.323,47.885 50.323,78.298 0,15.768-3.367,31.111-10.008,45.604-1.682,3.671-5.307,5.838-9.097,5.838-1.394,0-2.81-0.293-4.159-0.912-5.021-2.3-7.227-8.235-4.926-13.256 5.434-11.861 8.189-24.402 8.189-37.274 0-21.837-20.441-41.287-44.11-63.809-21.612-20.565-45.612-43.402-61.764-74.186-1.893,32.989-5.429,58.546-10.914,79.287-7.391,27.945-18.644,47.349-34.402,59.318-18.653,14.168-43.123,18.051-76.319,11.953 1.211,8.471 3.653,16.742 7.304,24.709 2.301,5.021 0.096,10.956-4.925,13.257-5.022,2.304-10.955,0.096-13.256-4.924zm290.333,181.966c5.68434e-14,5.522-4.478,10-10,10h-25.75c-0.095,0.003-0.189,0.004-0.284,0.004s-0.189-0.001-0.284-0.004h-25.729c-5.522,0-10-4.478-10-10s4.478-10 10-10h13.647l-9.235-43.01c-29.556,24.907-67.617,39.697-108.508,39.697-40.892,0-78.955-14.791-108.51-39.698l-9.236,43.011h13.648c5.523,0 10,4.478 10,10s-4.477,10-10,10h-25.73c-0.188,0.006-0.378,0.006-0.568,0h-25.75c-5.523,0-10-4.478-10-10s4.477-10 10-10h17.944l12.76-59.425c-19.733-21.997-33.833-49.324-39.781-79.91-0.57-2.932 0.2-5.965 2.1-8.27 1.899-2.305 4.729-3.64 7.716-3.64h310.812c2.986,0 5.816,1.335 7.717,3.64 1.899,2.305 2.669,5.338 2.1,8.27-5.948,30.586-20.05,57.914-39.783,79.911l12.761,59.424h17.944c5.522,0 9.999,4.477 9.999,10zm-23.386-141.244h-285.517c17.821,63.222 76.019,107.932 142.759,107.932 66.739-0.001 124.936-44.711 142.758-107.932zm-234.547-105.098c1.481,0.775 3.067,1.143 4.63,1.143 3.601,0 7.081-1.952 8.867-5.363 9.687-18.499 12.603-42.968 14.661-76.813 3.335,4.313 7.128,8.562 11.347,12.703 3.94,3.868 10.272,3.812 14.142-0.13 3.869-3.94 3.811-10.272-0.13-14.142-6.158-6.046-11.171-12.263-14.899-18.478-1.807-3.013-5.063-4.855-8.575-4.855h-11.061c-5.317,0-9.704,4.16-9.986,9.47-1.996,37.613-4.112,65.581-13.216,82.968-2.562,4.891-0.672,10.934 4.22,13.497zm143.552,68.984c1.522,0.833 3.166,1.228 4.787,1.228 3.538,0 6.967-1.883 8.783-5.206 6.598-12.069 9.942-24.88 9.942-38.075 0-21.12-16.085-37.6-33.468-52.262-4.219-3.56-10.53-3.025-14.091,1.196-3.562,4.221-3.025,10.53 1.196,14.091 13.691,11.55 26.362,24.022 26.362,36.975 0,9.806-2.521,19.389-7.491,28.483-2.648,4.846-0.866,10.922 3.98,13.57zm-51.762,100.423c-32.027,0-62.502-15.424-81.52-41.259-3.274-4.449-9.534-5.399-13.981-2.126-4.448,3.274-5.399,9.534-2.125,13.981 22.771,30.935 59.267,49.403 97.626,49.403 5.522,0 10-4.478 10-10s-4.478-9.999-10-9.999z" fill="#a8a8a8"/>
</svg>
