<?xml version="1.0" encoding="iso-8859-1"?>
<!-- Generator: Adobe Illustrator 19.0.0, SVG Export Plug-In . SVG Version: 6.00 Build 0)  -->
<svg xmlns="http://www.w3.org/2000/svg" xmlns:xlink="http://www.w3.org/1999/xlink" version="1.1" id="Capa_1" x="0px" y="0px" viewBox="0 0 59 59" style="enable-background:new 0 0 59 59;" xml:space="preserve" width="32px">
<path d="M33.507,43H42c0,5.514-4.486,10-10,10s-10-4.486-10-10v-7.307l0.648,0.243C22.765,35.979,22.883,36,23,36  c0.404,0,0.786-0.248,0.937-0.649c0.193-0.517-0.068-1.093-0.585-1.288L22,33.557v-1.863l0.648,0.243C22.765,31.979,22.883,32,23,32  c0.404,0,0.786-0.248,0.937-0.649c0.193-0.517-0.068-1.093-0.585-1.288L22,29.557v-1.863l0.648,0.243C22.765,27.979,22.883,28,23,28  c0.404,0,0.786-0.248,0.937-0.649c0.193-0.517-0.068-1.093-0.585-1.288L22,25.557v-1.863l0.648,0.243C22.765,23.979,22.883,24,23,24  c0.404,0,0.786-0.248,0.937-0.649c0.193-0.517-0.068-1.093-0.585-1.288L22,21.557V21c0-5.418-1.556-9.986-4-12.61V0h-2v6.806  C15.068,6.291,14.063,6,13,6h-1v6h1c0.669,0,2.542,2.569,2.926,7.279l-0.574-0.215c-0.519-0.192-1.095,0.067-1.288,0.585  c-0.193,0.517,0.068,1.093,0.585,1.288L16,21.443v1.863l-0.648-0.243c-0.519-0.192-1.095,0.067-1.288,0.585  c-0.193,0.517,0.068,1.093,0.585,1.288L16,25.443v1.863l-0.648-0.243c-0.519-0.192-1.095,0.067-1.288,0.585  c-0.193,0.517,0.068,1.093,0.585,1.288L16,29.443v1.863l-0.648-0.243c-0.519-0.191-1.095,0.068-1.288,0.585  c-0.193,0.517,0.068,1.093,0.585,1.288l1.308,0.491C15.74,35.43,14.06,37,12,37c-0.553,0-1,0.448-1,1s0.447,1,1,1  c1.538,0,2.937-0.586,4-1.54V43c0,8.822,7.178,16,16,16s16-7.178,16-16v-9.038L33.507,43z M19.995,20.805l-2.016-0.756  c-0.001-0.016,0-0.033-0.001-0.049H18v-8.166C19.218,14.126,19.968,17.271,19.995,20.805z M14,10.246v-2.12  c0.71,0.181,1.379,0.562,2,1.096v3.076C15.397,11.3,14.709,10.591,14,10.246z M18,22.193l2,0.75v1.863l-2-0.75V22.193z M18,26.193  l2,0.75v1.863l-2-0.75V26.193z M18,30.193l2,0.75v1.863l-2-0.75V30.193z M46,43c0,7.72-6.28,14-14,14s-14-6.28-14-14v-8.807l2,0.75  V43c0,6.617,5.383,12,12,12s12-5.383,12-12v-2h-3.507L46,37.566V43z" fill="#a8a8a8"/>
<g>
</g>
<g>
</g>
<g>
</g>
<g>
</g>
<g>
</g>
<g>
</g>
<g>
</g>
<g>
</g>
<g>
</g>
<g>
</g>
<g>
</g>
<g>
</g>
<g>
</g>
<g>
</g>
<g>
</g>
</svg>
