<?xml version="1.0" encoding="utf-8"?>
<!-- Generator: Adobe Illustrator 19.2.0, SVG Export Plug-In . SVG Version: 6.00 Build 0)  -->
<svg version="1.1" id="Layer_1" xmlns="http://www.w3.org/2000/svg" xmlns:xlink="http://www.w3.org/1999/xlink" x="0px" y="0px" width="25px"
	 viewBox="0 0 24 24" style="enable-background:new 0 0 24 24;" xml:space="preserve">
<style type="text/css">
	.st0{fill:#595959;}
</style>
<path class="st0" d="M14.8,6.3c-0.7,0-1,0-2.8,0s-2.1,0-2.8,0c-1.9,0.1-2.8,1-2.9,2.9c0,0.7,0,1,0,2.8s0,2.1,0,2.8
	c0.1,1.9,1,2.8,2.9,2.9c0.7,0,1,0,2.8,0c1.9,0,2.1,0,2.8,0c1.9-0.1,2.8-1,2.9-2.9c0-0.7,0-1,0-2.8s0-2.1,0-2.8
	C17.6,7.3,16.7,6.4,14.8,6.3z M12,15.6c-2,0-3.6-1.6-3.6-3.6c0-2,1.6-3.6,3.6-3.6s3.6,1.6,3.6,3.6S14,15.6,12,15.6z M15.7,9.1
	c-0.5,0-0.8-0.4-0.8-0.8s0.4-0.8,0.8-0.8c0.5,0,0.8,0.4,0.8,0.8C16.6,8.7,16.2,9.1,15.7,9.1z M14.3,12c0,1.3-1,2.3-2.3,2.3
	s-2.3-1-2.3-2.3s1-2.3,2.3-2.3S14.3,10.7,14.3,12z M12,0C5.4,0,0,5.4,0,12s5.4,12,12,12s12-5.4,12-12S18.6,0,12,0z M19,14.9
	c-0.1,2.5-1.5,4-4.1,4.1c-0.7,0-1,0-2.9,0s-2.1,0-2.9,0c-2.5-0.1-4-1.5-4.1-4.1c0-0.7,0-1,0-2.9s0-2.1,0-2.9c0.1-2.5,1.5-4,4.1-4.1
	c0.7,0,1,0,2.9,0s2.1,0,2.9,0c2.5,0.1,4,1.5,4.1,4.1c0,0.7,0,1,0,2.9S19,14.1,19,14.9z"/>
</svg>
