<?xml version="1.0" encoding="utf-8"?>
<!-- Generator: Adobe Illustrator 19.2.0, SVG Export Plug-In . SVG Version: 6.00 Build 0)  -->
<svg version="1.1" id="Layer_1" xmlns="http://www.w3.org/2000/svg" xmlns:xlink="http://www.w3.org/1999/xlink" x="0px" y="0px" width="148px"
	 viewBox="0 0 148 37.6" style="enable-background:new 0 0 148 37.6;" xml:space="preserve">
<style type="text/css">
	.st0{fill:none;stroke:#A9A8A8;stroke-miterlimit:10;}
	.st1{fill:#A8A8A8;}
</style>
<line class="st0" x1="5.8" y1="37.1" x2="143.3" y2="37.1"/>
<line class="st0" x1="5.6" y1="11" x2="62.1" y2="10.9"/>
<line class="st0" x1="84.1" y1="11" x2="142" y2="11"/>
<g>
	<path class="st1" d="M4.4,28l0.8-1.7c0.8,0.6,2.1,1,3.2,1c1.3,0,1.9-0.4,1.9-1c0-1.8-5.7-0.6-5.7-4.2c0-1.7,1.3-3.1,4.1-3.1
		c1.2,0,2.5,0.3,3.4,0.9l-0.7,1.6c-0.9-0.5-1.8-0.8-2.7-0.8c-1.3,0-1.9,0.5-1.9,1.1c0,1.8,5.7,0.6,5.7,4.2c0,1.6-1.4,3-4.2,3
		C6.8,29.1,5.3,28.6,4.4,28z"/>
	<path class="st1" d="M23.1,19.1v9.8h-2.3v-4h-4.4v4h-2.3v-9.8h2.3V23h4.5v-3.9H23.1z"/>
	<path class="st1" d="M25.3,24.6v-5.5h2.3v5.4c0,1.9,0.8,2.6,2.2,2.6c1.4,0,2.2-0.8,2.2-2.6v-5.4h2.2v5.5c0,2.9-1.7,4.5-4.4,4.5
		S25.3,27.5,25.3,24.6z"/>
	<path class="st1" d="M36.4,19.1h2.3v9.8h-2.3V19.1z"/>
	<path class="st1" d="M44.2,28l0.8-1.7c0.8,0.6,2.1,1,3.2,1c1.3,0,1.9-0.4,1.9-1c0-1.8-5.7-0.6-5.7-4.2c0-1.7,1.3-3.1,4.1-3.1
		c1.2,0,2.5,0.3,3.4,0.9l-0.7,1.7c-0.8-0.6-1.8-0.8-2.7-0.8c-1.3,0-1.9,0.5-1.9,1.1c0,1.8,5.7,0.6,5.7,4.2c0,1.6-1.4,3-4.2,3
		C46.7,29.1,45.1,28.6,44.2,28z"/>
	<path class="st1" d="M55.8,21h-3.1v-1.8h8.5V21h-3.1v8h-2.3C55.8,29,55.8,21,55.8,21z"/>
	<path class="st1" d="M70,27.1v1.8h-7.6v-9.8h7.4v1.8h-5.2V23h4.6v1.8h-4.6v2.3C64.6,27.1,70,27.1,70,27.1z"/>
	<path class="st1" d="M78.3,26.8h-4.6l-0.9,2.1h-2.3l4.4-9.8h2.2l4.4,9.8h-2.4L78.3,26.8z M77.6,25.1L76,21.3l-1.6,3.8H77.6z"/>
	<path class="st1" d="M86.1,25.1l-1.3,1.4V29h-2.3v-9.8h2.3v4.6l4.3-4.6h2.5l-4.1,4.4l4.3,5.4h-2.6L86.1,25.1z"/>
	<path class="st1" d="M101.9,19.1v9.8h-2.3v-4h-4.5v4h-2.3v-9.8h2.3V23h4.5v-3.9H101.9z"/>
	<path class="st1" d="M103.6,24c0-2.9,2.3-5.1,5.4-5.1s5.4,2.1,5.4,5.1s-2.3,5.1-5.4,5.1S103.6,26.9,103.6,24z M112,24
		c0-1.9-1.3-3.1-3.1-3.1s-3.1,1.3-3.1,3.1c0,1.9,1.3,3.1,3.1,3.1S112,25.9,112,24z"/>
	<path class="st1" d="M116,24.6v-5.5h2.3v5.4c0,1.9,0.8,2.6,2.2,2.6c1.4,0,2.2-0.8,2.2-2.6v-5.4h2.2v5.5c0,2.9-1.7,4.5-4.4,4.5
		C117.6,29.1,116,27.5,116,24.6z"/>
	<path class="st1" d="M126.3,28l0.8-1.7c0.8,0.6,2.1,1,3.2,1c1.3,0,1.9-0.4,1.9-1c0-1.8-5.7-0.6-5.7-4.2c0-1.7,1.3-3.1,4.1-3.1
		c1.2,0,2.5,0.3,3.4,0.9l-0.7,1.7c-0.9-0.5-1.8-0.8-2.7-0.8c-1.3,0-1.9,0.5-1.9,1.1c0,1.8,5.7,0.6,5.7,4.2c0,1.6-1.4,3-4.2,3
		C128.7,29.1,127.2,28.6,126.3,28z"/>
	<path class="st1" d="M143.6,27.1v1.8H136v-9.8h7.4v1.8h-5.2V23h4.6v1.8h-4.6v2.3C138.2,27.1,143.6,27.1,143.6,27.1z"/>
</g>
<path class="st1" d="M69.3,9.5C69.1,9,69,8.5,69,8c0-0.1,0-0.2,0.1-0.2c0.1-0.1,0.2-0.1,0.3-0.1c1.1,0.3,1.8,0.2,2.3-0.2
	c0.8-0.6,1.1-2,1.2-4.6c0-0.2,0.1-0.3,0.3-0.3h0.3c0.1,0,0.3,0.1,0.3,0.2c0.4,1.2,1.3,2,2.1,2.7c0.9,0.8,1.6,1.5,1.6,2.5
	c0,0.5-0.1,1-0.3,1.4c-0.1,0.1-0.2,0.2-0.3,0.2c0,0-0.1,0-0.1,0c-0.2-0.1-0.2-0.3-0.2-0.4c0.2-0.4,0.3-0.8,0.3-1.2
	c0-0.7-0.6-1.3-1.4-2c-0.7-0.6-1.4-1.4-1.9-2.3c-0.1,1-0.2,1.8-0.3,2.5c-0.2,0.9-0.6,1.5-1.1,1.9c-0.6,0.4-1.4,0.6-2.4,0.4
	c0,0.3,0.1,0.5,0.2,0.8c0.1,0.2,0,0.3-0.2,0.4C69.6,9.7,69.4,9.6,69.3,9.5z M78.5,15.2c0,0.2-0.1,0.3-0.3,0.3h-0.8c0,0,0,0,0,0
	c0,0,0,0,0,0h-0.8c-0.2,0-0.3-0.1-0.3-0.3s0.1-0.3,0.3-0.3H77l-0.3-1.4c-0.9,0.8-2.1,1.3-3.4,1.3c-1.3,0-2.5-0.5-3.4-1.3l-0.3,1.4
	H70c0.2,0,0.3,0.1,0.3,0.3s-0.1,0.3-0.3,0.3h-0.8c0,0,0,0,0,0h-0.8c-0.2,0-0.3-0.1-0.3-0.3s0.1-0.3,0.3-0.3h0.6l0.4-1.9
	c-0.6-0.7-1.1-1.6-1.3-2.5c0-0.1,0-0.2,0.1-0.3c0.1-0.1,0.1-0.1,0.2-0.1h9.8c0.1,0,0.2,0,0.2,0.1c0.1,0.1,0.1,0.2,0.1,0.3
	c-0.2,1-0.6,1.8-1.3,2.5l0.4,1.9h0.6C78.3,14.9,78.5,15,78.5,15.2z M77.7,10.7h-9c0.6,2,2.4,3.4,4.5,3.4
	C75.3,14.1,77.2,12.7,77.7,10.7z M70.4,7.4c0,0,0.1,0,0.1,0c0.1,0,0.2-0.1,0.3-0.2c0.3-0.6,0.4-1.4,0.5-2.4c0.1,0.1,0.2,0.3,0.4,0.4
	c0.1,0.1,0.3,0.1,0.4,0c0.1-0.1,0.1-0.3,0-0.4c-0.2-0.2-0.4-0.4-0.5-0.6c-0.1-0.1-0.2-0.2-0.3-0.2H71c-0.2,0-0.3,0.1-0.3,0.3
	c-0.1,1.2-0.1,2.1-0.4,2.6C70.1,7.2,70.2,7.4,70.4,7.4z M74.9,9.6c0,0,0.1,0,0.2,0c0.1,0,0.2-0.1,0.3-0.2c0.2-0.4,0.3-0.8,0.3-1.2
	c0-0.7-0.5-1.2-1.1-1.6c-0.1-0.1-0.3-0.1-0.4,0C74,6.8,74,7,74.2,7.1C74.6,7.5,75,7.9,75,8.3c0,0.3-0.1,0.6-0.2,0.9
	C74.7,9.3,74.7,9.5,74.9,9.6z M73.2,12.8c-1,0-2-0.5-2.6-1.3c-0.1-0.1-0.3-0.2-0.4-0.1c-0.1,0.1-0.2,0.3-0.1,0.4
	c0.7,1,1.9,1.6,3.1,1.6c0.2,0,0.3-0.1,0.3-0.3C73.6,12.9,73.4,12.8,73.2,12.8z"/>
</svg>
