<?xml version="1.0" encoding="utf-8"?>
<!-- Generator: Adobe Illustrator 19.2.0, SVG Export Plug-In . SVG Version: 6.00 Build 0)  -->
<svg version="1.1" id="Layer_1" xmlns="http://www.w3.org/2000/svg" xmlns:xlink="http://www.w3.org/1999/xlink" x="0px" y="0px" width="200px"
	 viewBox="0 0 123.8 173.9" style="enable-background:new 0 0 123.8 173.9;" xml:space="preserve">
<style type="text/css">
	.st0{fill:#E8E8E8;}
</style>
<g>
	<path class="st0" d="M94.9,30.2V0L0,30.3l0,0v143.6h123.8V30.2H94.9z M87.6,10v20.1H24.4L87.6,10z M116.4,166.6H7.3v-129h109.1
		L116.4,166.6L116.4,166.6z"/>
</g>
<path class="st0" d="M52.4,72c-0.5-1.3-0.8-2.5-0.8-3.8c0-0.3,0-0.5,0.3-0.5c0.3-0.3,0.5-0.3,0.8-0.3c2.8,0.8,4.5,0.5,5.8-0.5
	c2-1.5,2.8-5,3-11.6c0-0.5,0.3-0.8,0.8-0.8H63c0.3,0,0.8,0.3,0.8,0.5c1,3,3.3,5,5.3,6.8c2.3,2,4,3.8,4,6.3c0,1.3-0.3,2.5-0.8,3.5
	c-0.3,0.3-0.5,0.5-0.8,0.5h-0.3c-0.5-0.3-0.5-0.8-0.5-1c0.5-1,0.8-2,0.8-3c0-1.8-1.5-3.3-3.5-5c-1.8-1.5-3.5-3.5-4.8-5.8
	c-0.3,2.5-0.5,4.5-0.8,6.3c-0.5,2.3-1.5,3.8-2.8,4.8c-1.5,1-3.5,1.5-6,1c0,0.8,0.3,1.3,0.5,2c0.3,0.5,0,0.8-0.5,1
	C53.2,72.5,52.7,72.2,52.4,72z M75.6,86.3c0,0.5-0.3,0.8-0.8,0.8h-2l0,0l0,0h-2c-0.5,0-0.8-0.3-0.8-0.8c0-0.5,0.3-0.8,0.8-0.8h1
	L71,82c-2.3,2-5.3,3.3-8.6,3.3s-6.3-1.3-8.6-3.3l-0.8,3.5h1c0.5,0,0.8,0.3,0.8,0.8c0,0.5-0.3,0.8-0.8,0.8h-2l0,0h-2
	c-0.5,0-0.8-0.3-0.8-0.8c0-0.5,0.3-0.8,0.8-0.8h1.5l1-4.8c-1.5-1.8-2.8-4-3.3-6.3c0-0.3,0-0.5,0.3-0.8c0.3-0.3,0.3-0.3,0.5-0.3h24.7
	c0.3,0,0.5,0,0.5,0.3c0.3,0.3,0.3,0.5,0.3,0.8c-0.5,2.5-1.5,4.5-3.3,6.3l1,4.8h1.5C75.1,85.6,75.6,85.8,75.6,86.3z M73.6,75H50.9
	c1.5,5,6,8.6,11.3,8.6C67.5,83.6,72.3,80,73.6,75z M55.2,66.7h0.3c0.3,0,0.5-0.3,0.8-0.5c0.8-1.5,1-3.5,1.3-6c0.3,0.3,0.5,0.8,1,1
	c0.3,0.3,0.8,0.3,1,0c0.3-0.3,0.3-0.8,0-1c-0.5-0.5-1-1-1.3-1.5c-0.3-0.3-0.5-0.5-0.8-0.5h-0.8c-0.5,0-0.8,0.3-0.8,0.8
	c-0.3,3-0.3,5.3-1,6.5C54.4,66.2,54.7,66.7,55.2,66.7z M66.5,72.2c0,0,0.3,0,0.5,0s0.5-0.3,0.8-0.5c0.5-1,0.8-2,0.8-3
	c0-1.8-1.3-3-2.8-4c-0.3-0.3-0.8-0.3-1,0c-0.5,0.5-0.5,1,0,1.3c1,1,2,2,2,3c0,0.8-0.3,1.5-0.5,2.3C66,71.5,66,72,66.5,72.2z
	 M62.2,80.3c-2.5,0-5-1.3-6.5-3.3c-0.3-0.3-0.8-0.5-1-0.3c-0.3,0.3-0.5,0.8-0.3,1c1.8,2.5,4.8,4,7.8,4c0.5,0,0.8-0.3,0.8-0.8
	C63.2,80.5,62.7,80.3,62.2,80.3z"/>
<g>
	<path class="st0" d="M17.8,103.2l0.5-1.1c0.5,0.4,1.4,0.6,2.1,0.6c0.8,0,1.2-0.3,1.2-0.6c0-1.2-3.7-0.4-3.7-2.7c0-1.1,0.8-2,2.6-2
		c0.8,0,1.6,0.2,2.2,0.6l-0.5,1c-0.6-0.3-1.2-0.5-1.7-0.5c-0.8,0-1.2,0.3-1.2,0.7c0,1.2,3.7,0.4,3.7,2.7c0,1-0.9,1.9-2.7,1.9
		C19.4,103.9,18.4,103.6,17.8,103.2z"/>
	<path class="st0" d="M29.9,97.5v6.3h-1.5v-2.6h-2.8v2.6h-1.5v-6.3h1.5v2.5h2.9v-2.5H29.9z"/>
	<path class="st0" d="M31.3,101v-3.5h1.5v3.5c0,1.2,0.5,1.7,1.4,1.7s1.4-0.5,1.4-1.7v-3.5H37v3.5c0,1.9-1.1,2.9-2.8,2.9
		S31.3,102.9,31.3,101z"/>
	<path class="st0" d="M38.4,97.5h1.5v6.3h-1.5V97.5z"/>
	<path class="st0" d="M43.4,103.2l0.5-1.1c0.5,0.4,1.4,0.6,2.1,0.6c0.8,0,1.2-0.3,1.2-0.6c0-1.2-3.7-0.4-3.7-2.7c0-1.1,0.8-2,2.6-2
		c0.8,0,1.6,0.2,2.2,0.6l-0.5,1.1c-0.5-0.4-1.2-0.5-1.7-0.5c-0.8,0-1.2,0.3-1.2,0.7c0,1.2,3.7,0.4,3.7,2.7c0,1-0.9,1.9-2.7,1.9
		C45.1,103.9,44,103.6,43.4,103.2z"/>
	<path class="st0" d="M50.9,98.7h-2v-1.2h5.5v1.2h-2v5.2h-1.5C50.9,103.9,50.9,98.7,50.9,98.7z"/>
	<path class="st0" d="M60.1,102.7v1.2h-4.9v-6.3h4.8v1.2h-3.3v1.4h3v1.2h-3v1.5C56.6,102.7,60.1,102.7,60.1,102.7z"/>
	<path class="st0" d="M65.4,102.5h-3l-0.6,1.4h-1.5l2.8-6.3h1.4l2.8,6.3h-1.5L65.4,102.5z M65,101.4l-1-2.4l-1,2.4
		C62.9,101.4,65,101.4,65,101.4z"/>
	<path class="st0" d="M70.4,101.4l-0.8,0.9v1.6h-1.5v-6.3h1.5v3l2.8-3H74l-2.6,2.8l2.8,3.5h-1.7L70.4,101.4z"/>
	<path class="st0" d="M80.6,97.5v6.3h-1.5v-2.6h-2.9v2.6h-1.5v-6.3h1.5v2.5h2.9v-2.5H80.6z"/>
	<path class="st0" d="M81.7,100.7c0-1.9,1.5-3.3,3.5-3.3s3.5,1.4,3.5,3.3s-1.5,3.3-3.5,3.3S81.7,102.5,81.7,100.7z M87.1,100.7
		c0-1.2-0.8-2-2-2s-2,0.8-2,2c0,1.2,0.8,2,2,2S87.1,101.9,87.1,100.7z"/>
	<path class="st0" d="M89.7,101v-3.5h1.5v3.5c0,1.2,0.5,1.7,1.4,1.7c0.9,0,1.4-0.5,1.4-1.7v-3.5h1.4v3.5c0,1.9-1.1,2.9-2.8,2.9
		C90.7,103.9,89.7,102.9,89.7,101z"/>
	<path class="st0" d="M96.3,103.2l0.5-1.1c0.5,0.4,1.4,0.6,2.1,0.6c0.8,0,1.2-0.3,1.2-0.6c0-1.2-3.7-0.4-3.7-2.7c0-1.1,0.8-2,2.6-2
		c0.8,0,1.6,0.2,2.2,0.6l-0.5,1.1c-0.6-0.3-1.2-0.5-1.7-0.5c-0.8,0-1.2,0.3-1.2,0.7c0,1.2,3.7,0.4,3.7,2.7c0,1-0.9,1.9-2.7,1.9
		C97.9,103.9,96.9,103.6,96.3,103.2z"/>
	<path class="st0" d="M107.5,102.7v1.2h-4.9v-6.3h4.8v1.2H104v1.4h3v1.2h-3v1.5C104,102.7,107.5,102.7,107.5,102.7z"/>
</g>
<g>
	<path class="st0" d="M42,149.2l0-9.5l-4.7,7.8h-1.7l-4.7-7.6v9.3h-3.4v-15.9h3l5.9,9.9l5.9-9.9h3l0,15.9H42z"/>
	<path class="st0" d="M61.5,146.3v2.9H49.2v-15.9h12v2.9h-8.3v3.4h7.4v2.9h-7.4v3.7H61.5z"/>
	<path class="st0" d="M79,133.3v15.9h-3l-7.9-9.6v9.6h-3.6v-15.9h3l7.9,9.6v-9.6H79z"/>
	<path class="st0" d="M82.6,142.2v-8.9h3.7v8.8c0,3,1.3,4.3,3.5,4.3c2.2,0,3.5-1.2,3.5-4.3v-8.8H97v8.9c0,4.7-2.7,7.3-7.2,7.3
		C85.3,149.5,82.6,146.9,82.6,142.2z"/>
</g>
</svg>
